# xmcd CD database file
#
# Track frame offsets:
#	150
#	17492
#	39047
#	51947
#	74735
#	87630
#	106262
#	126317
#	147337
#
# Disc length: 2172 seconds
#
# Revision: 0
# Processed by: cddbd v1.4b41PL1 Copyright (c) Steve Scherf et al.
# Submitted via: Feurio! 1.61 - http://www.feurio.com
#
DISCID=7d087a09
DTITLE=Alexis Korner - The Lost Album -1977
DYEAR=1900
DGENRE=
TTITLE0=Lend Me Some Time
TTITLE1=Daytime Song
TTITLE2=New Orleanes
TTITLE3=Medley: Hit The Road Jack/Working In A Coalmine
TTITLE4=Honour The Young Man
TTITLE5=The Road Is The Road
TTITLE6=Sweet Sympathy
TTITLE7=The Gambler
TTITLE8=To Whom It May Concern
EXTD=Magnum Music\r\nRecorded At Foel Studios,Wales in 1977
EXTT0=
EXTT1=
EXTT2=
EXTT3=
EXTT4=
EXTT5=
EXTT6=
EXTT7=
EXTT8=
PLAYORDER=
